<?xml version="1.0" encoding="UTF-8" standalone="no"?>
<!DOCTYPE svg PUBLIC "-//W3C//DTD SVG 1.1//EN" "http://www.w3.org/Graphics/SVG/1.1/DTD/svg11.dtd">
<svg width="402.00" height="423.00" viewBox="0.00 0.00 402.00 423.00" xmlns="http://www.w3.org/2000/svg" xmlns:xlink="http://www.w3.org/1999/xlink">
<g stroke-linecap="round" transform="translate(-545.00, -379.00)" id="Layer_1">
<path d="M570.68,674.77 C570.68,674.77 570.78,677.90 570.78,677.90" fill="none" stroke="rgb(0, 0, 0)" stroke-width="60.00" stroke-opacity="1.00" stroke-linejoin="round"/>
<path d="M572.15,680.63 C573.66,685.82 578.79,700.40 581.32,706.40 C583.70,712.00 592.30,728.96 594.72,733.07 C597.05,737.02 606.35,750.90 611.25,756.28 C613.84,759.09 619.21,764.38 621.84,766.30 C625.09,768.63 629.27,770.65 634.26,772.21 C636.43,772.85 638.85,772.87 640.83,772.26 C642.29,771.79 650.09,766.69 651.22,765.48 C652.74,763.81 654.04,761.35 654.85,758.80 C655.00,758.30 657.49,749.97 657.94,746.19 C658.84,738.39 658.90,729.02 657.76,719.31 C655.41,700.84 650.42,677.21 645.64,658.87 C641.47,644.16 630.95,610.83 627.04,599.94 C621.14,584.36 607.34,550.60 604.14,544.00 C598.16,532.07 580.29,499.17 571.89,483.91 C565.50,472.26 554.20,450.97 549.29,441.33" fill="none" stroke="rgb(0, 0, 0)" stroke-width="60.00" stroke-opacity="1.00" stroke-linejoin="round"/>
<path d="M728.80,496.86 C727.76,499.47 725.15,506.09 723.94,509.99 C722.10,515.98 719.75,528.02 718.24,539.16 C715.89,560.32 714.43,579.73 714.39,600.40 C714.59,611.14 715.49,625.03 716.06,630.71 C716.78,637.37 719.43,651.87 721.01,657.67 C723.19,665.56 728.35,677.94 732.22,683.72 C733.84,686.11 738.43,691.47 740.14,693.04 C742.70,695.35 748.61,699.22 751.57,700.39 C754.82,701.63 760.27,702.69 763.72,702.75 C766.79,702.77 773.17,701.46 775.66,700.42 C778.16,699.33 783.66,695.55 786.00,693.18 C788.59,690.51 792.18,685.40 794.25,681.49 C797.42,675.38 801.97,660.91 802.50,655.11 C803.41,644.39 801.01,612.53 798.74,598.14 C797.55,591.02 787.34,552.42 782.29,537.68 C779.70,530.80 774.75,517.82 771.01,511.10 C768.53,506.86 766.34,503.97 762.89,501.89 C762.06,501.40 758.16,499.29 756.98,498.66 C751.63,502.24 746.99,505.63 745.05,508.28 C743.07,511.05 737.22,523.16 734.57,531.54 C732.49,538.61 729.21,550.89 727.26,559.57 C726.46,563.25 725.43,568.04 725.19,569.15" fill="none" stroke="rgb(0, 0, 0)" stroke-width="60.00" stroke-opacity="1.00" stroke-linejoin="round"/>
<path d="M723.84,575.42 C723.84,575.42 723.45,577.23 723.45,577.23" fill="none" stroke="rgb(0, 0, 0)" stroke-width="60.00" stroke-opacity="1.00" stroke-linejoin="round"/>
<path d="M829.07,544.58 C828.14,556.47 827.65,565.98 828.77,575.11 C829.67,582.12 837.81,616.86 838.67,619.27 C839.75,622.19 842.76,627.58 845.10,630.68 C848.09,634.60 852.01,638.95 855.37,642.11 C858.23,644.75 863.46,647.78 866.42,647.90 C871.08,648.01 885.05,644.06 889.62,641.21 C892.45,639.40 895.98,635.54 898.17,632.36 C903.89,624.08 909.06,613.77 911.66,605.87 C914.02,598.57 916.38,586.48 917.00,579.01 C917.52,571.34 918.09,558.22 918.28,552.21" fill="none" stroke="rgb(0, 0, 0)" stroke-width="60.00" stroke-opacity="1.00" stroke-linejoin="round"/>
<path d="M895.49,458.59 C896.31,460.46 903.31,475.44 906.85,484.48 C913.89,503.52 921.35,527.89 924.95,542.97 C926.44,550.07 929.13,564.81 930.24,572.21 C931.20,579.52 932.51,596.68 932.62,601.20 C932.81,608.87 932.14,622.02 931.11,631.34 C930.10,638.74 927.68,655.52 926.41,660.99 C925.05,666.84 919.31,684.96 917.84,688.88 C915.31,695.55 908.79,709.44 904.63,716.49 C900.74,723.04 891.40,735.86 886.78,741.02 C881.28,747.14 870.93,756.68 864.45,761.60 C858.85,765.83 845.21,773.92 838.19,777.04 C831.04,780.19 817.02,785.40 809.13,787.20 C803.03,788.58 763.30,795.37 750.61,797.08 C749.07,797.29 746.55,797.64 745.57,797.77" fill="none" stroke="rgb(0, 0, 0)" stroke-width="60.00" stroke-opacity="1.00" stroke-linejoin="round"/>
<path d="M741.06,798.39 C741.06,798.39 739.44,799.37 739.44,799.37" fill="none" stroke="rgb(0, 0, 0)" stroke-width="60.00" stroke-opacity="1.00" stroke-linejoin="round"/>
<path d="M711.86,467.47 C711.66,466.53 711.35,464.42 711.25,462.87 C710.80,456.27 711.44,442.18 712.98,436.07 C713.95,432.34 716.26,427.22 718.32,425.37 C719.53,424.33 722.50,423.32 724.20,423.32 C726.37,423.39 732.85,426.32 735.80,428.52 C741.52,432.87 751.07,443.40 754.97,449.26 C755.48,450.02 757.64,453.43 758.28,454.44" fill="none" stroke="rgb(0, 0, 0)" stroke-width="60.00" stroke-opacity="1.00" stroke-linejoin="round"/>
<path d="M833.81,455.40 C834.25,451.81 838.88,435.68 841.85,430.68 C843.07,428.66 848.17,422.18 850.02,421.12 C851.69,420.21 856.95,421.10 859.06,422.73 C861.46,424.64 865.48,429.02 867.46,431.86 C870.09,435.67 874.83,444.88 875.31,445.81" fill="none" stroke="rgb(0, 0, 0)" stroke-width="60.00" stroke-opacity="1.00" stroke-linejoin="round"/>
</g>
</svg>
